<svg xmlns="http://www.w3.org/2000/svg" xmlns:xlink="http://www.w3.org/1999/xlink" version="1.1" id="Layer_1" x="0px" y="0px" width="100px" height="100px" viewBox="5.0 -10.0 100.0 135.0" enable-background="new 0 0 100 100" xml:space="preserve">
<path d="M53.29,59.879c7-11.8,21.489-13.281,21.489-13.281c-12.437,6.529-17.837,14.818-18.605,19.902  c31.911,5.197,33.423-27.97,33.423-27.97C59.327,33.139,54.48,52.568,53.29,59.879z M39.71,37.597c0,0,0.245-10.657-7.496-17.334  c0,0,8.457,3.567,12.003,12.507c0.361-5.378-0.366-19.526-22.712-20.689C21.503,12.081,19.293,34.743,39.71,37.597z M53.711,85.054  C51.288,76.99,43.323,43.12,65.504,2.582c0,0-31.401,32.871-22.683,82.522c-18.401,0.496-32.419,3.043-32.419,6.113  c0,3.425,17.446,6.202,38.966,6.202c21.52,0,38.966-2.777,38.966-6.202C88.335,88.025,73.187,85.398,53.711,85.054z"/>
<text x="0.0" y="117.5" font-size="5.0" font-weight="bold" font-family="Helvetica Neue, Helvetica, Arial-Unicode, Arial, Sans-serif" fill="#000000">Created by Michele Zamparo</text><text x="0.0" y="122.5" font-size="5.0" font-weight="bold" font-family="Helvetica Neue, Helvetica, Arial-Unicode, Arial, Sans-serif" fill="#000000">from the Noun Project</text></svg>